<svg width="140" height="33" viewBox="0 0 140 33" fill="none" xmlns="http://www.w3.org/2000/svg">
<path d="M30.3772 15.7614C32.8804 17.3623 34.132 19.6617 34.132 22.6597C34.132 25.3085 33.186 27.4624 31.2941 29.1215C29.4021 30.7806 27.059 31.6101 23.1219 31.6101H0V1.04785H22.2487C26.1276 1.04785 28.4125 1.86284 30.2462 3.49283C32.109 5.09371 33.0405 7.18941 33.0405 9.77993C33.0405 12.2249 32.1527 14.2187 30.3772 15.7614ZM22.2487 7.59691H6.98566V13.0108H22.2487C24.1774 13.0108 24.8178 12.7634 25.3126 12.2686C25.8074 11.7446 26.0548 11.0897 26.0548 10.3039C26.0548 9.51796 25.8074 8.87761 25.3126 8.3828C24.8178 7.85887 24.1774 7.59691 22.2487 7.59691ZM23.1219 25.0611C25.1379 25.0611 25.8365 24.7991 26.3604 24.2752C26.8844 23.7221 27.1463 23.009 27.1463 22.1358C27.1463 21.2626 26.8844 20.564 26.3604 20.0401C25.8365 19.4871 25.1379 19.2106 23.1219 19.2106H6.98566V25.0611H23.1219Z" fill="white"/>
<path d="M42.2717 6.7237C41.5149 7.48048 40.3924 7.85887 38.9497 7.85887C37.507 7.85887 36.3699 7.48048 35.584 6.7237C34.8272 5.93781 34.4488 5.00639 34.4488 3.92944C34.4488 2.85248 34.8272 1.93561 35.584 1.17883C36.3699 0.392944 37.4286 0 38.9497 0C40.2857 0 41.5149 0.392944 42.2717 1.17883C43.0576 1.93561 43.4506 2.85248 43.4506 3.92944C43.4506 5.00639 43.0576 5.93781 42.2717 6.7237ZM35.6752 31.6101V9.77993H42.2242V31.6101H35.6752Z" fill="white"/>
<path d="M62.6663 16.067H55.3121V23.7949C55.3121 24.6681 55.6614 25.2212 56.36 25.454C57.0585 25.6869 61.0654 25.7596 62.6663 25.6723V31.6101C58.504 32.0467 52.7653 31.6538 51.1644 30.4313C49.5635 29.1797 48.7631 26.9676 48.7631 23.7949V16.067H43.5559V9.77993H48.7631V5.63219L55.3121 3.66747V9.77993H62.6663V16.067Z" fill="white"/>
<path d="M84.6538 9.77993H91.2029V31.6101H84.6538V29.5581C83.1112 31.3336 79.2284 32.2214 76.4341 32.2214C73.5526 32.2214 69.3787 31.1153 67.3412 28.9032C65.3038 26.6619 64.285 23.9259 64.285 20.695C64.285 17.4642 65.3038 14.7427 67.3412 12.5305C69.3787 10.2893 73.5526 9.16868 76.4341 9.16868C79.2284 9.16868 83.1112 10.0564 84.6538 11.832V9.77993ZM72.2749 24.5808C73.2354 25.5413 75.0584 26.0216 77.7439 26.0216C80.4295 26.0216 82.2525 25.5413 83.213 24.5808C84.1736 23.6203 84.6538 22.325 84.6538 20.695C84.6538 19.065 84.1736 17.7698 83.213 16.8092C82.2525 15.8487 80.4295 15.3685 77.7439 15.3685C75.0584 15.3685 73.2354 15.8487 72.2749 16.8092C71.3144 17.7698 70.8341 19.065 70.8341 20.695C70.8341 22.325 71.3144 23.6203 72.2749 24.5808Z" fill="white"/>
<path d="M108.268 6.7237C103.847 6.49084 103.954 7.50959 103.954 9.77993H110.871V16.067H103.954V31.6101H97.4047V16.067H92.7652V9.77993H97.4047C97.4047 6.63638 98.2925 4.24961 100.068 2.61962C101.844 0.960529 104.492 0.232856 110.3 0.436603L108.268 6.7237Z" fill="white"/>
<path d="M118.966 6.7237C118.209 7.48048 117.093 7.85887 115.644 7.85887C114.194 7.85887 113.064 7.48048 112.278 6.7237C111.521 5.93781 111.143 5.00639 111.143 3.92944C111.143 2.85248 111.521 1.93561 112.278 1.17883C113.064 0.392944 114.194 0 115.644 0C117.093 0 118.209 0.392944 118.966 1.17883C119.752 1.93561 120.145 2.85248 120.145 3.92944C120.145 5.00639 119.752 5.93781 118.966 6.7237ZM112.369 31.6101V9.77993H118.918V31.6101H112.369Z" fill="white"/>
<path d="M139.36 16.067H132.006V23.7949C132.006 24.6681 132.355 25.2212 133.054 25.454C133.753 25.6869 137.759 25.7596 139.36 25.6723V31.6101C135.198 32.0467 129.459 31.6538 127.858 30.4313C126.258 29.1797 125.457 26.9676 125.457 23.7949V16.067H120.25V9.77993H125.457V5.63219L132.006 3.66747V9.77993H139.36V16.067Z" fill="white"/>
</svg>
