<svg width="165" height="39" viewBox="0 0 165 39" fill="none" xmlns="http://www.w3.org/2000/svg">
<path fill-rule="evenodd" clip-rule="evenodd" d="M25.9848 20.5488C25.9581 15.7025 29.9475 13.3731 30.135 13.266C27.8591 9.94591 24.3516 9.49074 23.1199 9.46396C20.1747 9.14266 17.3097 11.2311 15.8103 11.2311C14.2841 11.2311 11.9547 9.49074 9.46464 9.54429C6.25163 9.59784 3.25283 11.4453 1.61955 14.337C-1.78088 20.2275 0.735976 28.8759 4.00253 33.6151C5.63581 35.9445 7.53684 38.5417 10.0269 38.4613C12.4634 38.3542 13.3738 36.9084 16.319 36.9084C19.2375 36.9084 20.0676 38.4613 22.6112 38.4078C25.2351 38.3542 26.8684 36.0516 28.4481 33.6954C30.3224 31.0447 31.0989 28.4207 31.1256 28.2868C31.0453 28.26 26.0384 26.3322 25.9848 20.5488Z" fill="#413C55"/>
<path fill-rule="evenodd" clip-rule="evenodd" d="M21.1915 6.33144C22.5035 4.69816 23.387 2.47583 23.1461 0.199951C21.245 0.280276 18.8888 1.51193 17.5233 3.11843C16.3184 4.53751 15.2206 6.84016 15.5152 9.03572C17.6304 9.19637 19.8259 7.93794 21.1915 6.33144Z" fill="#413C55"/>
<path fill-rule="evenodd" clip-rule="evenodd" d="M59.3692 30.5341H55.8804L53.9574 24.5179H47.3094L45.4688 30.5341H42.0898L48.6554 10.0681H52.7486L59.3692 30.5341ZM53.3805 22.0181L51.6498 16.6612C51.4575 16.1118 51.1279 14.8206 50.6059 12.8152H50.551C50.3587 13.6668 50.029 14.958 49.5895 16.6612L47.8863 22.0181H53.3805Z" fill="#413C55"/>
<path fill-rule="evenodd" clip-rule="evenodd" d="M76.3199 22.9796C76.3199 25.4795 75.6331 27.4849 74.287 28.9408C73.0508 30.232 71.5399 30.8638 69.7543 30.8638C67.8038 30.8638 66.4028 30.177 65.5512 28.776H65.4963V36.5503H62.2272V20.6446C62.2272 19.0512 62.1723 17.4304 62.0898 15.7822H64.9743L65.1666 18.1172H65.2216C66.3204 16.3591 67.9687 15.48 70.1938 15.48C71.952 15.48 73.408 16.1668 74.5617 17.5403C75.7155 18.9139 76.3199 20.727 76.3199 22.9796ZM72.9684 23.0895C72.9684 21.661 72.6388 20.4797 72.0069 19.5457C71.2927 18.5842 70.3312 18.0897 69.1499 18.0897C68.3258 18.0897 67.5841 18.3644 66.9522 18.8864C66.2929 19.4358 65.8534 20.1226 65.6611 21.0017C65.5512 21.4137 65.4963 21.7434 65.4963 21.9906V24.463C65.4963 25.5344 65.8259 26.441 66.4852 27.1827C67.1445 27.9244 67.9961 28.2815 69.04 28.2815C70.2762 28.2815 71.2377 27.8145 71.9245 26.853C72.6113 25.919 72.9684 24.6553 72.9684 23.0895Z" fill="#413C55"/>
<path fill-rule="evenodd" clip-rule="evenodd" d="M93.2965 22.9796C93.2965 25.4795 92.6097 27.4849 91.2361 28.9408C90.0274 30.232 88.5165 30.8638 86.7309 30.8638C84.7804 30.8638 83.3794 30.177 82.5278 28.776H82.4728V36.5503H79.2038V20.6446C79.2038 19.0512 79.1488 17.4304 79.0664 15.7822H81.9509L82.1432 18.1172H82.1981C83.297 16.3591 84.9452 15.48 87.1704 15.48C88.9286 15.48 90.3845 16.1668 91.5383 17.5403C92.6921 18.9139 93.2965 20.727 93.2965 22.9796ZM89.945 23.0895C89.945 21.661 89.6153 20.4797 88.9835 19.5457C88.2693 18.5842 87.3078 18.0897 86.1265 18.0897C85.3024 18.0897 84.5606 18.3644 83.9013 18.8864C83.2695 19.4358 82.83 20.1226 82.6377 21.0017C82.5278 21.4137 82.4728 21.7434 82.4728 21.9906V24.463C82.4728 25.5344 82.8025 26.441 83.4618 27.1827C84.1211 27.9244 84.9727 28.2815 86.0166 28.2815C87.2528 28.2815 88.2143 27.8145 88.9011 26.853C89.5879 25.919 89.945 24.6553 89.945 23.0895Z" fill="#413C55"/>
<path fill-rule="evenodd" clip-rule="evenodd" d="M112.278 24.7926C112.278 26.5507 111.673 27.9518 110.437 29.0506C109.119 30.2593 107.25 30.8362 104.861 30.8362C102.663 30.8362 100.905 30.4242 99.5586 29.5726L100.328 26.8254C101.756 27.7045 103.35 28.1441 105.08 28.1441C106.316 28.1441 107.25 27.8693 107.965 27.2925C108.652 26.743 108.981 26.0013 108.981 25.0673C108.981 24.2432 108.706 23.5289 108.13 22.9795C107.58 22.4026 106.619 21.8806 105.3 21.3862C101.729 20.0401 99.9432 18.0896 99.9432 15.5073C99.9432 13.8316 100.575 12.458 101.811 11.3867C103.075 10.3153 104.751 9.76587 106.838 9.76587C108.706 9.76587 110.245 10.0955 111.481 10.7274L110.657 13.4195C109.503 12.7877 108.212 12.4855 106.729 12.4855C105.575 12.4855 104.696 12.7602 104.036 13.3096C103.487 13.8316 103.212 14.436 103.212 15.1777C103.212 15.9743 103.542 16.6611 104.146 17.1831C104.696 17.6776 105.685 18.1995 107.141 18.7489C108.899 19.4632 110.19 20.2873 111.014 21.2488C111.866 22.2103 112.278 23.3916 112.278 24.7926Z" fill="#413C55"/>
<path fill-rule="evenodd" clip-rule="evenodd" d="M123.102 18.2544H119.503V25.3969C119.503 27.2374 120.135 28.144 121.399 28.144C122.003 28.144 122.47 28.089 122.855 27.9791L122.965 30.479C122.306 30.7263 121.454 30.8361 120.41 30.8361C119.119 30.8361 118.102 30.4515 117.361 29.6549C116.646 28.8582 116.262 27.5396 116.262 25.6716V18.2269H114.119V15.782H116.262V13.0623L119.503 12.1008V15.782H123.102V18.2544Z" fill="#413C55"/>
<path fill-rule="evenodd" clip-rule="evenodd" d="M139.419 23.0345C139.419 25.3146 138.759 27.1827 137.468 28.6386C136.122 30.1221 134.309 30.8638 132.056 30.8638C129.914 30.8638 128.183 30.1496 126.892 28.7211C125.601 27.2926 124.969 25.4795 124.969 23.2818C124.969 21.0017 125.628 19.1336 126.947 17.6777C128.265 16.1942 130.051 15.48 132.304 15.48C134.474 15.48 136.204 16.1942 137.523 17.6227C138.787 19.0238 139.419 20.8369 139.419 23.0345ZM136.012 23.1444C136.012 21.7709 135.737 20.6171 135.133 19.6556C134.446 18.4743 133.457 17.87 132.194 17.87C130.875 17.87 129.859 18.4743 129.172 19.6556C128.595 20.6171 128.293 21.7983 128.293 23.1994C128.293 24.5729 128.595 25.7267 129.172 26.7157C129.886 27.8969 130.875 28.4738 132.166 28.4738C133.402 28.4738 134.391 27.8695 135.106 26.6882C135.71 25.6718 136.012 24.4905 136.012 23.1444Z" fill="#413C55"/>
<path fill-rule="evenodd" clip-rule="evenodd" d="M150.08 18.6666C149.75 18.6117 149.42 18.5842 149.036 18.5842C147.882 18.5842 147.003 18.9963 146.371 19.8754C145.821 20.6446 145.547 21.6335 145.547 22.7873V30.5342H142.278L142.305 20.4248C142.305 18.7216 142.278 17.1832 142.195 15.7822H145.052L145.162 18.6117H145.245C145.602 17.6227 146.151 16.8535 146.893 16.2766C147.635 15.7272 148.404 15.48 149.255 15.48C149.558 15.48 149.832 15.5075 150.08 15.5349V18.6666Z" fill="#413C55"/>
<path fill-rule="evenodd" clip-rule="evenodd" d="M164.748 22.4573C164.748 23.0617 164.721 23.5562 164.638 23.9408H154.776C154.831 25.3968 155.298 26.5231 156.205 27.2923C157.056 27.979 158.128 28.3362 159.446 28.3362C160.902 28.3362 162.221 28.0889 163.402 27.6219L163.924 29.902C162.523 30.5064 160.875 30.8086 158.979 30.8086C156.699 30.8086 154.886 30.1493 153.595 28.8032C152.276 27.4571 151.617 25.644 151.617 23.3639C151.617 21.1387 152.249 19.2982 153.458 17.8147C154.721 16.2489 156.452 15.4522 158.622 15.4522C160.738 15.4522 162.358 16.2489 163.457 17.8147C164.309 19.0784 164.748 20.6168 164.748 22.4573ZM161.617 21.6057C161.644 20.6443 161.424 19.7926 160.985 19.0784C160.408 18.1719 159.556 17.7323 158.375 17.7323C157.304 17.7323 156.425 18.1719 155.765 19.0509C155.216 19.7652 154.886 20.6168 154.776 21.6057H161.617Z" fill="#413C55"/>
</svg>
