<svg width="166" height="31" viewBox="0 0 166 31" fill="none" xmlns="http://www.w3.org/2000/svg">
<path fill-rule="evenodd" clip-rule="evenodd" d="M85.0832 28.8209C84.3409 28.181 83.7266 27.1827 83.3683 26.4916L85.8511 25.4165C86.0047 25.7237 86.2351 26.1844 86.619 26.594C87.2589 27.2851 88.1036 27.7714 89.1531 27.7714C90.1258 27.7714 91.2008 27.3107 91.7895 26.5172C92.3015 25.8005 92.5062 24.9046 92.5062 23.9319V22.9593C90.7145 25.2374 86.8238 24.9302 84.6481 22.5497C82.3188 20.0157 82.3444 15.9202 84.6993 13.3861C87.0286 11.0825 90.4585 10.8009 92.4806 12.9766H92.5062V11.8759H95.1939V23.6248C95.1939 26.594 94.0932 28.2834 92.7366 29.2816C91.7383 29.9983 90.3561 30.3311 89.1275 30.3311C87.5149 30.3311 86.1583 29.768 85.0832 28.8209ZM54.956 17.9935C54.956 14.9219 57.2853 11.5176 61.3808 11.5176C65.4506 11.5176 67.8055 14.9219 67.8055 17.9935C67.8055 21.0907 65.4506 24.4951 61.3808 24.4951C57.2853 24.4951 54.956 21.0907 54.956 17.9935ZM68.9062 17.9935C68.9062 14.9219 71.2611 11.5176 75.3309 11.5176C79.4008 11.5176 81.7557 14.9219 81.7557 17.9935C81.7557 21.0907 79.4008 24.4951 75.3309 24.4951C71.2611 24.4951 68.9062 21.0907 68.9062 17.9935ZM37.5247 21.4235C33.634 17.4816 33.762 11.1848 37.6527 7.26856C39.5981 5.29762 42.1577 4.32495 44.743 4.32495C47.2002 4.35055 49.6575 5.27203 51.5773 7.06379L49.6575 9.06032C46.8675 6.37268 42.4137 6.39828 39.7004 9.2139C36.936 12.0807 36.8592 16.6625 39.6237 19.5293C42.4137 22.3962 47.0211 22.5497 49.8111 19.7085C50.7326 18.7358 51.0653 17.5072 51.2445 16.2274H44.7174V13.4629H53.881C54.0345 14.154 54.0345 14.8708 54.0345 15.5875C54.0345 17.84 53.0619 20.246 51.5517 21.8074C49.8111 23.5736 47.3794 24.4951 44.8454 24.4695C42.1833 24.4439 39.5213 23.42 37.5247 21.4235ZM102.796 22.5753C100.518 20.0413 100.518 15.8946 102.796 13.3606C105.1 10.8521 109.016 10.8521 111.243 13.3606C111.96 14.1796 112.446 15.2291 112.881 16.3298L104.306 19.9389C104.818 20.9627 105.791 21.9354 107.352 21.9354C108.683 21.9354 109.605 21.4747 110.552 20.1181L112.804 21.6283C112.548 21.961 112.216 22.3194 111.985 22.5753C109.707 25.1094 105.1 25.1094 102.796 22.5753ZM97.0368 24.1111V4.99046H99.8781V24.1111H97.0368ZM64.9643 17.9935C64.9643 16.1506 63.6589 14.0773 61.3808 14.0773C59.1027 14.0773 57.7972 16.1506 57.7972 17.9935C57.7972 19.8621 59.1027 21.9098 61.3808 21.9098C63.6589 21.9098 64.9643 19.8621 64.9643 17.9935ZM78.9144 17.9935C78.9144 16.1506 77.609 14.0773 75.3309 14.0773C73.0528 14.0773 71.7474 16.1506 71.7474 17.9935C71.7474 19.8621 73.0528 21.9098 75.3309 21.9098C77.609 21.9098 78.9144 19.8621 78.9144 17.9935ZM92.5574 19.171C92.583 19.0942 92.6342 18.915 92.6598 18.7102C92.6598 18.6846 92.6854 18.659 92.6598 18.659C92.711 18.4287 92.7366 18.1983 92.711 17.9679C92.711 17.7376 92.711 17.5328 92.6598 17.328C92.6598 17.2768 92.6598 17.2512 92.6598 17.2512C92.6342 17.0465 92.583 16.8417 92.5062 16.6625C92.0199 15.1523 90.7401 14.0773 89.2043 14.1029C87.2845 14.1029 85.7487 15.869 85.7487 18.0191C85.7743 20.1948 87.3357 21.9098 89.2555 21.9098C90.7913 21.8842 92.0711 20.8092 92.5574 19.171ZM103.871 17.7632L109.579 15.3571C108.99 14.3332 108.043 14.0005 107.224 14.0005C105.049 14.0005 103.564 16.4833 103.871 17.7632Z" fill="#413C55"/>
<path fill-rule="evenodd" clip-rule="evenodd" d="M154.474 29.8446L157.341 23.6758L152.094 11.6198H155.447L158.774 20.3483L162.358 11.6198H165.327L157.674 29.8446H154.474ZM140.78 23.2407C139.986 22.4728 139.551 21.2698 139.551 20.1435C139.526 19.1964 139.858 18.1982 140.575 17.4303C141.701 16.2272 143.416 15.6897 145.208 15.6897C146.386 15.6897 147.435 15.9457 148.229 16.3808C148.229 14.3587 146.642 13.5908 145.285 13.5908C144.056 13.5908 142.802 14.0259 142.367 15.1522L139.833 14.1283C140.294 12.8997 141.855 11.0311 145.234 11.0311C146.872 11.0311 148.484 11.5943 149.56 12.7205C150.609 13.8468 150.967 15.0498 150.967 16.9183V24.0854H148.177V22.8568C147.819 23.2919 147.256 23.7526 146.667 24.0598C145.95 24.3926 145.131 24.5205 144.363 24.5205C143.084 24.5205 141.701 24.111 140.78 23.2407ZM119.586 24.111V5.70703H125.678C129.236 5.70703 131.923 8.26669 131.923 11.3383C131.923 14.4099 129.364 16.9695 126.215 16.9695H122.402V24.111H119.586ZM134.432 24.111V5.70703H137.248V24.111H134.432ZM148.203 18.7101C147.512 18.2494 146.462 18.0446 145.566 18.0446C143.57 18.0446 142.444 19.0429 142.444 20.1435C142.444 21.3722 143.621 21.9865 144.722 21.9865C146.309 21.9865 148.203 20.6554 148.203 18.7101ZM129.057 11.4151C129.057 9.80249 127.802 8.44587 125.934 8.44587H122.402V14.3587H126.087C127.751 14.3587 129.057 13.0021 129.057 11.4151Z" fill="#413C55"/>
<path d="M0 14.6876V1.58217C0 0.865463 0.614318 0.199951 1.27983 0.199951C1.89415 0.199951 2.17571 0.379127 2.48287 0.532707L26.4925 13.6638C27.0044 13.9453 27.2604 14.3037 27.2604 14.6876C27.2604 15.046 27.0044 15.4299 26.4925 15.7115L2.48287 28.8425C2.17571 28.9961 1.89415 29.1497 1.27983 29.1497C0.614318 29.1497 0 28.4842 0 27.7675V14.6876Z" fill="url(#paint0_linear_241_2700)"/>
<path d="M15.6153 14.7644L1.05078 0.225548C1.12757 0.199951 1.20436 0.199951 1.28115 0.199951C1.89547 0.199951 2.17703 0.379127 2.48419 0.532707L20.1715 10.2082L15.6153 14.7644Z" fill="url(#paint1_linear_241_2700)"/>
<path d="M20.0415 19.2183L15.6133 14.7644L20.1695 10.2083L26.4918 13.6638C27.0038 13.9454 27.2597 14.3037 27.2597 14.6877C27.2597 15.046 27.0038 15.43 26.4918 15.7115L20.0415 19.2183Z" fill="url(#paint2_linear_241_2700)"/>
<path d="M1.20312 29.1497H1.22872L15.614 14.7644L20.0422 19.2182L2.48296 28.8425C2.1758 28.9961 1.89423 29.1497 1.27991 29.1497C1.25432 29.1497 1.22872 29.1497 1.20312 29.1497Z" fill="url(#paint3_linear_241_2700)"/>
<defs>
<linearGradient id="paint0_linear_241_2700" x1="13.6297" y1="0.202383" x2="13.6297" y2="29.1622" gradientUnits="userSpaceOnUse">
<stop stop-color="#1F7CAF"/>
<stop offset="0.45098" stop-color="#40BDC1"/>
<stop offset="1" stop-color="#62FFD4"/>
</linearGradient>
<linearGradient id="paint1_linear_241_2700" x1="1.06304" y1="7.48528" x2="20.1653" y2="7.48528" gradientUnits="userSpaceOnUse">
<stop stop-color="#4BC3AE"/>
<stop offset="1" stop-color="#DDE899"/>
</linearGradient>
<linearGradient id="paint2_linear_241_2700" x1="21.4293" y1="10.2047" x2="21.4293" y2="19.2208" gradientUnits="userSpaceOnUse">
<stop stop-color="#FF8777"/>
<stop offset="0.45098" stop-color="#FFA676"/>
<stop offset="1" stop-color="#FFC674"/>
</linearGradient>
<linearGradient id="paint3_linear_241_2700" x1="10.6324" y1="14.7682" x2="10.6324" y2="29.1622" gradientUnits="userSpaceOnUse">
<stop stop-color="#EB3F3D"/>
<stop offset="0.45098" stop-color="#C23A7F"/>
<stop offset="1" stop-color="#9934C1"/>
</linearGradient>
</defs>
</svg>
