<svg width="62" height="52" viewBox="0 0 62 52" fill="none" xmlns="http://www.w3.org/2000/svg">
<path fill-rule="evenodd" clip-rule="evenodd" d="M46.0063 27.6952C41.0776 27.6952 16.6027 27.6952 11.674 27.6952C12.012 26.2927 12.3502 24.89 12.6882 23.4875C20.146 23.4875 41.7606 23.4875 49.2183 23.4875C63.2907 23.4875 66.3608 0 53.4119 0L27.229 0.00874811L14.2309 10.321H50.0288L49.0146 14.5285C43.1933 14.5285 19.5148 14.5285 13.6936 14.5285C-3.27944 14.5285 -4.68675 36.5118 10.6618 36.5118H43.7159L42.7017 40.7193L9.85588 40.7527L18.3808 51.1968C28.9005 51.208 30.4427 51.1855 40.9624 51.1968C55.2612 51.1968 59.7483 27.6952 46.0063 27.6952Z" fill="url(#paint0_linear_241_2687)"/>
<defs>
<linearGradient id="paint0_linear_241_2687" x1="0" y1="0" x2="70.5458" y2="20.4658" gradientUnits="userSpaceOnUse">
<stop stop-color="#B487F5"/>
<stop offset="1" stop-color="#6E8CF5"/>
</linearGradient>
</defs>
</svg>
