<svg width="49" height="40" viewBox="0 0 49 40" fill="none" xmlns="http://www.w3.org/2000/svg">
<path fill-rule="evenodd" clip-rule="evenodd" d="M35.9424 21.6369C32.0919 21.6369 12.9709 21.6369 9.12033 21.6369C9.3844 20.5412 9.64859 19.4453 9.91266 18.3496C15.739 18.3496 32.6254 18.3496 38.4518 18.3496C49.4458 18.3496 51.8443 0 41.7281 0L21.2727 0.00683446L11.1179 8.06325H39.085L38.2926 11.3504C33.7448 11.3504 15.246 11.3504 10.6981 11.3504C-2.56207 11.3504 -3.66152 28.5249 8.32955 28.5249H34.1531L33.3607 31.812L7.69991 31.838L14.36 39.9975C22.5785 40.0062 23.7834 39.9887 32.0019 39.9975C43.1728 39.9975 46.6783 21.6369 35.9424 21.6369Z" fill="white"/>
</svg>
